<svg viewBox="0 0 22 24" xmlns="http://www.w3.org/2000/svg"><path d="M19.56 14.239a8.06 8.06 0 00.607-3.106c0-.81-.124-1.586-.338-2.306-.731.169-1.496.259-2.295.259a10.204 10.204 0 01-8.347-4.32 10.362 10.362 0 01-5.321 5.49c-.045.281-.045.585-.045.877a8.179 8.179 0 008.178 8.18 8.133 8.133 0 003.341-.72c.642 1.226.934 1.833.912 1.833-1.845.619-3.274.923-4.253.923a10.178 10.178 0 01-7.233-2.993 10.16 10.16 0 01-2.52-4.151H.749V9.086h1.227a10.226 10.226 0 0117.246-5.175A10.115 10.115 0 0122 9.086h1.25v5.119h-.068l-4.005 3.679-5.963-.675v-1.88h5.434l.911-1.09zM8.927 10.875c.338 0 .664.135.9.382a1.277 1.277 0 010 1.8 1.277 1.277 0 01-.9.371 1.272 1.272 0 01-1.282-1.27c0-.71.573-1.283 1.282-1.283zm6.131 0c.709 0 1.272.573 1.272 1.282 0 .709-.563 1.271-1.272 1.271a1.272 1.272 0 01-.907-2.178c.24-.24.567-.375.907-.375z"/></svg>