<svg width="35" height="34" viewBox="0 0 35 34" fill="none" xmlns="http://www.w3.org/2000/svg">
<path d="M4.53027 30.8721L6.66924 28.7853L8.80821 30.8721L10.9472 28.7853L13.0861 30.8721L15.2251 28.7853L17.3641 30.8721L19.5031 28.7853L21.642 30.8721L23.781 28.7853L25.92 30.8721L28.0589 28.7853L30.1979 30.8721V3.0481L28.0589 5.13489L25.92 3.0481L23.781 5.13489L21.642 3.0481L19.5031 5.13489L17.3641 3.0481L15.2251 5.13489L13.0861 3.0481L10.9472 5.13489L8.80821 3.0481L6.66924 5.13489L4.53027 3.0481V30.8721ZM25.92 12.7865H8.80821V10.0041H25.92V12.7865ZM25.92 18.3513H8.80821V15.5689H25.92V18.3513ZM25.92 23.9161H8.80821V21.1337H25.92V23.9161Z" fill="#15347D"/>
</svg>
